<?xml version="1.0" encoding="utf-8"?>
<!-- Generator: Adobe Illustrator 26.0.1, SVG Export Plug-In . SVG Version: 6.00 Build 0)  -->
<svg version="1.1" xmlns="http://www.w3.org/2000/svg" xmlns:xlink="http://www.w3.org/1999/xlink" x="0px" y="0px"
	 viewBox="0 0 276 189" style="enable-background:new 0 0 276 189;" xml:space="preserve">
<style type="text/css">
	.st0{fill:#FA1996;}
	.st1{fill:#FA1996;stroke:#FA1996;stroke-miterlimit:10;}
	.st2{fill:#FA1996;stroke:#FA1996;stroke-width:0.75;stroke-linecap:round;stroke-miterlimit:10;}
</style>
<g id="Lager_1">
</g>
<g id="Lager_3">
</g>
<g id="Lager_2">
</g>
<g id="Lager_4">
</g>
<g id="Lager_6">
	<path d="M38,92c9.37,0,17,7.4,17,16.5S47.37,125,38,125s-17-7.4-17-16.5S28.63,92,38,92 M38,75C19.22,75,4,90,4,108.5
		S19.22,142,38,142s34-15,34-33.5S56.78,75,38,75L38,75z"/>
	<path d="M154,91.5c9.37,0,17,7.4,17,16.5h17c0-18.5-15.22-33.5-34-33.5l0,0c-18.78,0-34,15-34,33.5h17
		C137,98.9,144.63,91.5,154,91.5"/>
	<path d="M205,91.5c9.37,0,17,7.4,17,16.5h17c0-18.5-15.22-33.5-34-33.5l0,0c-18.78,0-34,15-34,33.5h17
		C188,98.9,195.63,91.5,205,91.5"/>
	<rect x="55" y="75" width="17" height="67"/>
	<rect x="120" y="75" width="17" height="67"/>
	<rect x="171" y="105" width="17" height="37"/>
	<rect x="222" y="106" width="17" height="36"/>
	<rect x="252" y="76" width="17" height="66"/>
	<rect x="87" y="50" width="17" height="92"/>
	<circle cx="259.5" cy="58.5" r="11.5"/>
</g>
<g id="Lager_5">
</g>
</svg>
