<?xml version="1.0" encoding="utf-8"?>
<!-- Generator: Adobe Illustrator 26.0.1, SVG Export Plug-In . SVG Version: 6.00 Build 0)  -->
<svg version="1.1" xmlns="http://www.w3.org/2000/svg" xmlns:xlink="http://www.w3.org/1999/xlink" x="0px" y="0px"
	 viewBox="0 0 137 127" style="enable-background:new 0 0 137 127;" xml:space="preserve">
<style type="text/css">
	.st0{fill:#870AA0;}
	.st1{fill:#FF5F0A;}
	.st2{fill:#FFCD32;}
	.st3{fill:#FFF0AF;}
	.st4{fill:none;stroke:#FA1996;stroke-width:0.25;stroke-miterlimit:10;}
	.st5{fill:#FA1996;}
	.st6{fill:none;}
	.st7{fill:#00F0AF;}
	.st8{fill:#23C3FF;}
	.st9{fill:#00BE5F;}
	.st10{fill:#EAC31C;}
	.st11{fill:#1233D8;}
</style>
<g id="Lager_4">
</g>
<g id="Lager_5">
	<g>
		<path class="st6" d="M48.87,84.13C53.98,89,60.9,92,68.5,92c0.17,0,0.33-0.01,0.5-0.01V64L48.87,84.13z"/>
		<path class="st6" d="M40.01,64c0.14,7.91,3.51,15.04,8.86,20.13L69,64H40.01z"/>
		<path class="st6" d="M88.64,83.64c5.05-5.05,8.21-11.98,8.34-19.64H69L88.64,83.64z"/>
		<path class="st6" d="M96.99,64c0-0.17,0.01-0.33,0.01-0.5c0-7.6-3-14.52-7.87-19.63L69,64H96.99z"/>
		<path class="st6" d="M48.36,43.36C43.2,48.52,40,55.64,40,63.5c0,0.17,0.01,0.33,0.01,0.5H69L48.36,43.36z"/>
		<path class="st6" d="M69,35.01V64l20.13-20.13C84.04,38.52,76.91,35.15,69,35.01z"/>
		<path class="st6" d="M69,35.01c-0.17,0-0.33-0.01-0.5-0.01c-7.86,0-14.98,3.2-20.14,8.36L69,64V35.01z"/>
		<path class="st6" d="M69,91.99c7.66-0.13,14.59-3.29,19.64-8.34L69,64V91.99z"/>
		<path class="st1" d="M69,91.99v20c13.19-0.13,25.13-5.53,33.79-14.19L88.64,83.64C83.59,88.69,76.66,91.85,69,91.99z"/>
		<path class="st1" d="M68.5,92c-7.6,0-14.52-3-19.63-7.87L34.72,98.28C43.45,106.77,55.36,112,68.5,112c0.17,0,0.33-0.01,0.5-0.01
			v-20C68.83,91.99,68.67,92,68.5,92z"/>
		<path class="st1" d="M88.64,83.64l14.15,14.15c8.67-8.67,14.06-20.6,14.19-33.79h-20C96.85,71.66,93.69,78.59,88.64,83.64z"/>
		<path class="st2" d="M103.28,29.72L89.13,43.87C94,48.98,97,55.9,97,63.5c0,0.17-0.01,0.33-0.01,0.5h20c0-0.17,0.01-0.33,0.01-0.5
			C117,50.36,111.77,38.45,103.28,29.72z"/>
		<path class="st2" d="M89.13,43.87l14.15-14.15c-8.7-8.96-20.84-14.57-34.28-14.7v20C76.91,35.15,84.04,38.52,89.13,43.87z"/>
		<path class="st1" d="M68.5,35c0.17,0,0.33,0.01,0.5,0.01v-20c-0.17,0-0.33-0.01-0.5-0.01c-13.39,0-25.52,5.43-34.29,14.21
			l14.15,14.15C53.52,38.2,60.64,35,68.5,35z"/>
		<path class="st1" d="M40.01,64h-20c0.14,13.45,5.74,25.58,14.7,34.28l14.15-14.15C43.52,79.04,40.15,71.91,40.01,64z"/>
		<path class="st1" d="M40,63.5c0-7.86,3.2-14.98,8.36-20.14L34.21,29.21C25.43,37.98,20,50.11,20,63.5c0,0.17,0.01,0.33,0.01,0.5
			h20C40.01,63.83,40,63.67,40,63.5z"/>
	</g>
</g>
<g id="Lager_2">
</g>
<g id="Lager_1">
</g>
<g id="Lager_3">
</g>
</svg>
